<?xml version="1.0"?>
<svg xmlns="http://www.w3.org/2000/svg" version="1.1" viewBox="0 0 1536 1024">

<path transform="translate(754,156)" d="m0 0h58l44 2 47 4 47 6 48 9 32 8 29 9 24 9 21 11 13 9 13 13 9 14 5 12 3 14v15l-111-2-165-2h-231l-195 3-29 1v-13l4-16 8-16 8-10 9-9 13-9 16-8 20-9 33-11 34-9 42-9 50-8 46-5 27-2z" fill="#0A0A0A"></path>
<path transform="translate(249,300)" d="m0 0h123l3 2-1 5-5 8-133 2-25 25-8 7-3 3v276l29 29 68 1 5 4 1 2 1 27 3 9 7 8 9 6 13 5 29 7 44 8 59 8 56 6 61 5 64 4 44 2 40 1h102l42-1 77-4 65-5 84-9 62-9 41-8 26-7 10-6 8-9 4-10 1-27 4-6 2-1 72-1 11-11 7-8 9-9v-278l-7-7-7-8-7-7-7-8-5-5-139-1-5-9v-5l2-1h140l9 1 6 5 7 8 15 16 12 13 2 2v290l-4 5-26 26-5 6-2 1h-69v21l-3 10-6 11-9 9-10 6-12 5-38 9-47 8-59 8-45 5-60 5-64 4-45 2-34 1h-104l-66-2-70-4-64-5-59-6-66-9-35-6-28-6-21-6-16-8-10-9-6-8-4-9-1-5v-21h-65l-10-9-12-12-5-3-6-8-5-5-1-3v-285l3-5 15-15 5-4 23-23z" fill="#FFFFFF"></path>
<path transform="translate(754,138)" d="m0 0h59l41 2 48 4 48 6 35 6 36 8 29 8 27 9 24 11 15 9 12 9 12 11 10 14 7 14 5 17 2 13 1 18 8 9 3 8-2 4h-15l-5-8-5-2-181-3-95-1h-226l-81 1-113 2-39 1-9 3-4 5-1 2h-16l-1-1 1-8 6-9 5-4 2-1 1-3 2-19 4-17 6-14 7-11 11-12 7-7 18-12 15-8 24-10 37-12 36-9 47-9 40-6 47-5 28-2zm0 18-28 1-48 4-39 5-41 7-42 9-42 12-25 9-24 11-13 8-10 8-9 9-9 14-6 15-2 10v13l29-1 114-2 81-1h231l165 2 65 1 46 1v-15l-4-17-8-16-8-10-11-11-17-11-21-10-25-9-26-8-39-9-38-7-47-6-47-4-44-2z" fill="#FB0403"></path>
<path transform="translate(786,340)" d="m0 0h43l13 56 9 37 1 1 19-79 4-15h41v245l-4 1-35-1-1-22v-85l-17 69-7 26h-2l-18-71-6-24v105h-40z" fill="#FFFFFF"></path>
<path transform="translate(441,344)" d="m0 0h13v252l-2 1-33 3h-5l-1-113-20 1v114l-33 4h-8v-258l10-1 31-1v105l21-2v-103l3-1z" fill="#FFFFFF"></path>
<path transform="translate(1067,343)" d="m0 0 43 1 3 2 11 82 19 137 4 33-1 1-30-2-10-1-1-1-4-38-1-4-18-1-6-1-1 13-4 29h-15l-26-2 6-41 17-114 13-88z" fill="#FFFFFF"></path>
<path transform="translate(283,350)" d="m0 0h25l11 4 8 7 6 12 1 6v52l-1 5-31 3h-9l-1-47-4-4h-8l-5 4v179l3 3 7 1 5-2 2-4 1-50 1-1 30-3h10v63l-2 10-6 10-8 8-11 5-13 2-27 3-11-1-12-6-6-7-4-9-1-5v-207l2-9 6-9 8-7 9-4 5-1z" fill="#FFFFFF"></path>
<path transform="translate(635,340)" d="m0 0h14l2 7 14 96 8 53 12 81v8l-40 1-1-1-4-36v-3l-26 1-2 21-3 19-31 2h-9l1-14 10-67 14-91 11-73 1-3z" fill="#FFFFFF"></path>
<path transform="translate(1267,350)" d="m0 0 25 1 15 1 10 4 9 9 4 9 1 5v55h-14l-20-1-4-1-1-41-4-3h-7l-4 4v48l37 37 6 5 8 11 3 10v87l-3 10-9 10-10 5-11 1-30-3-9-3-9-7-6-7-4-10-1-4v-62l37 3 1 47 3 4h11l1-4v-53l-4-9-12-11-18-18-8-7-8-9-3-7v-82l4-10 8-8 8-4z" fill="#FFFFFF"></path>
<path transform="translate(544,341)" d="m0 0h14l1 1v36l-1 1-42 2-1 56 12-1h25v23l-1 16-4 1-31 2v71l35-2h7l1 3v39l-3 1-76 5h-6v-251l8-1z" fill="#FFFFFF"></path>
<path transform="translate(937,340)" d="m0 0 57 1 27 1v38h-29l-15-1v57h28l8 1v35l-1 5h-21l-14-1v71l36 1 9 1v41h-20l-66-3v-246z" fill="#FFFFFF"></path>
<path transform="translate(675,340)" d="m0 0h100v37h-32v206l-15 1h-25v-207h-28z" fill="#FFFFFF"></path>
<path transform="translate(1159,346)" d="m0 0h12l21 1 7 1 1 216 24 2 6 1v40l-66-6-5-1z" fill="#FFFFFF"></path>
<path transform="translate(995,653)" d="m0 0 6 2-1 5-6 10-4 10 8-7 4-5 8-15 6 1 1 4-8 16-1 5 6-5 4-8 6-13h5l2 4-2 4 7-8 4 2 2 2-1 6-1 2 5-2 6-7 5-3h8l5 5v8l-3 9 3-2 6-12 8-7 2-1h7l5 5v8l-6 7-5 3-6-1-2-1 2 7 4 1 7-4 3-3 7-16 4-6 5 1 1 2-4 8 7-9 4-2 5 5-2 7 6-8 6-4h8l3 2 1 6-4 7h-4l-2-1 1-5 2-3-5 1-2 2 1 4 7 7v8l-4 5-5 2h-7l-5-4v-6l4-5h5l-2 5v4h6l-1-7-5-4-2-3-5 4-6-1v-6l2-4-10 15-6 12-5-2-2-2-5 3-7 1-7-3-2-3v-4l-7 4-8 18-7 11-8 7-5 2-7-1-2-3 1-7 4-6 6-7 10-8 7-5-4 2-2 2h-6l-3-4v-7l2-7-4 3-5-1-1-4 4-7-9 13-8 15-5-2-2-2-5 3h-5l-3-4v-3l-8 7h-5l-3-3 1-10 7-14z" fill="#FFFFFF"></path>
<path transform="translate(838,624)" d="m0 0 5 2 1 3-13 22-12 23-2 6 8-7 5-6 8-13 3-1 4 3-2 5-8 16v3l6-5 10-14 8-7 2-1h8l8 2v4h-2l1 4-7 17 6-4 4-5 10-19 5 1 2 1-1 4-5 9 9-12 3-2h5l3 4-1 6-7 14v2l7-6 6-8 2 1-1 6-7 9-6 5-7 1-3-3 1-8 7-16-8 9-12 18-2 1-5-4-5 3h-5l-4-6-7 6h-6l-4-4-1-2-6 5-7 1-4-6-6 5-6 1-3-2-2-4-6 5-8 1-4-4-1-4-8 7-7 1-3-3 1-8 7-16-9 11-11 16-6-1-1-3 7-16 8-14 7 1-1 4-3 6 7-9 3-2 6 1 2 3-1 6-8 17 8-7 8-9 7-8 7-4 8 1 2 2 14-24 4-6z" fill="#FFFFFF"></path>
<path transform="translate(970,622)" d="m0 0h9l9 3 4 5v7l-4 7-9 7-7 3 8 7 1 3v8l-6 9-8 6-12 5-5 1h-11l-6-3-2-2v-5l2-2 5-13 11-21 9-13 2-2-6 2-9 6-5 6-2 5-5-2v-6l4-6 7-6 12-6z" fill="#FFFFFF"></path>
<path transform="translate(610,652)" d="m0 0 6 2 3 4-1 8-6 7-5 3-7-2v5l5 3 8-4 8-9 4-4 1 4-6 9-10 8-5 2-7-1-5-4-1-6-11 9-7 1-3-4 1-7 7-16-8 9-12 19-5-3-1-4 5-12 5-10-5 5-8 10-8 14-4-1-2-1 1-9 4-9-6 1-1 5-7 10-5 3h-8l-5-5v-10l6-12 7-6 2-1h7l4 4 2 8 7-3 5-9h5l2 2-1 4-2 4 9-10h7l3 3-2 5-4 8 8-11 6-5h6l3 4-2 6-8 17 9-7 7-9 7-8z" fill="#FFFFFF"></path>
<path transform="translate(702,625)" d="m0 0 4 2 2 3-12 20-7 12 1 8 6-2 4-4h3l1 4-4 5-4 2h-6l-2 11-5 15-7 13-6 5-6 1-4-4v-10l6-18 8-17 2-3-2 1h-6l-1 5-6 9-6 4h-8l-4-4-1-8 3-10 7-9 8-4 6 1 3 5 1 5-1 3 10-5 18-30z" fill="#FFFFFF"></path>
<path transform="translate(520,618)" d="m0 0 4 1 2 5-9 14-9 17 3 3-1 5-7-1-2 6-6 12-3 9v5l2 4-1 2h-6l-4-4v-9l7-17 3-6h-11l-10 2-14 26-4 6-4-1-2-5 10-19 3-5-5 1-6 3-4-2v-6l10-4 12-2 2-5 15-27 1-3-14 7-8 7-1 7v2l-6-1-2-3v-6l7-8 9-6 7-3h12l4 5-1 6-13 23-2 4 3-1h17l2-5 14-25z" fill="#FFFFFF"></path>
<path transform="translate(995,653)" d="m0 0 6 2-1 5-6 10-4 10 8-7 4-5 8-15 6 1 1 4-8 16-1 5 6-5 4-8 6-13h5l2 4-2 4 7-8 4 2 2 2-1 6-1 2 3-1v4l-6 4-5-1-1-4 4-7-9 13-8 15-5-2-2-2-5 3h-5l-3-4v-3l-8 7h-5l-3-3 1-10 7-14z" fill="#FFFFFF"></path>
<path transform="translate(774,618)" d="m0 0h10l2 2-1 5h-9l-10 2-14 26-12 22-4 9 5 2 1 5-15 2-11 3-2-2 1-5 9-3 3-3 12-25 11-20 5-9-14 6-4 2-2-2v-5l4-3 15-5z" fill="#FFFFFF"></path>
<path transform="translate(627,431)" d="m0 0h1l9 73v6l-19 1-1-2 9-72z" fill="#0A0A0A"></path>
<path transform="translate(1089,434)" d="m0 0h1l8 72v9l-18-1 1-14 6-50z" fill="#0A0A0A"></path>
<path transform="translate(340,668)" d="m0 0h71l3 3-1 5-2 2h-71l-3-3 1-6z" fill="#FB0403"></path>
<path transform="translate(1168,668)" d="m0 0h65l3 4-2 5-1 1h-65l-3-4 2-5z" fill="#FB0403"></path>
<path transform="translate(960,658)" d="m0 0 9 2 5 5-1 5-4 6-9 7-9 4-4 1h-10l-2-2 6-4 6-1v-2h-5l2-6 7-12z" fill="#0A0A0A"></path>
<path transform="translate(671,225)" d="m0 0h6l4 2 1 2v7l-8 9-7 3-7-1-4-5 1-7 7-7z" fill="#FB0403"></path>
<path transform="translate(519,240)" d="m0 0h7l5 5-1 7-5 6-7 4h-9l-4-5 1-7 5-6z" fill="#FB0403"></path>
<path transform="translate(1041,239)" d="m0 0 7 1 6 4 5 6 1 7-5 5h-8l-8-6-4-6v-7l3-3z" fill="#FB0403"></path>
<path transform="translate(890,225)" d="m0 0h8l6 3 6 6 1 8-4 5h-9l-6-4-5-6-1-7z" fill="#FB0403"></path>
<path transform="translate(601,201)" d="m0 0h9l4 4v6l-5 7-7 4h-9l-4-3v-8l6-7z" fill="#FB0403"></path>
<path transform="translate(958,198)" d="m0 0h7l8 4 5 6 1 7-5 5-9-1-8-6-3-5v-6z" fill="#FB0403"></path>
<path transform="translate(724,182)" d="m0 0h8l4 3v8l-5 6-8 4h-7l-5-5 1-7 4-5z" fill="#FB0403"></path>
<path transform="translate(776,225)" d="m0 0h8l7 4 6 7v7l-4 4h-8l-6-4-6-7v-8z" fill="#FB0403"></path>
<path transform="translate(829,182)" d="m0 0h9l9 6 3 4 1 5-3 5-2 1h-8l-6-3-6-7v-8z" fill="#FB0403"></path>
<path transform="translate(968,628)" d="m0 0h13l4 4-2 7-9 8-16 6h-2l2-5 7-11 1-3-5-4z" fill="#0A0A0A"></path>
<path transform="translate(810,658)" d="m0 0h5l1 5-6 10-7 6-5 1 1-9 6-9z" fill="#0A0A0A"></path>
<path transform="translate(683,671)" d="m0 0h1v8l-5 17-7 13-4 3 1-9 6-16z" fill="#0A0A0A"></path>
<path transform="translate(865,658)" d="m0 0h4l-3 9-6 9-5 4h-4l1-7 6-10z" fill="#0A0A0A"></path>
<path transform="translate(661,658)" d="m0 0h2l-1 11-6 10-5 3-1-1 1-10 6-10z" fill="#0A0A0A"></path>
<path transform="translate(526,659)" d="m0 0h3l-1 12-5 8-5 3-1-1v-7l4-9z" fill="#0A0A0A"></path>
<path transform="translate(1060,658)" d="m0 0 2 1-1 6-6 9-6 6h-3l2-8 6-10z" fill="#0A0A0A"></path>
<path transform="translate(1097,665)" d="m0 0 1 2-4 9-7 6-5 1-4-3v-6l8 1 8-6z" fill="#0A0A0A"></path>
<path transform="translate(1049,692)" d="m0 0v3l-8 14-6 5-3-1 2-6 9-10z" fill="#0A0A0A"></path>
<path transform="translate(849,636)" d="m0 0 4 2 1 3-7 9-4-2-1-4 4-6z" fill="#FFFFFF"></path>
<path transform="translate(610,658)" d="m0 0h3l1 3-4 7-5 4-4-1 2-6z" fill="#0A0A0A"></path>
<path transform="translate(1089,658)" d="m0 0h2v6l-6 7-6 1 2-6 5-6z" fill="#0A0A0A"></path>
</svg>